<svg xmlns="http://www.w3.org/2000/svg" id="export" class="canvas" preserveAspectRatio="xMidYMid meet" viewBox="0 0 304 1087" style="position: static; margin: auto; width: 334.4px; height: 1195.7px;" width="115" height="898"><rect id="background" fill="#fff" pointer-events="all" width="115" height="898"/><g id="origin" transform="translate(5.1921875, 5.1921875) scale(1)"><g id="clusters" class="clusters"/><g id="edge-paths" class="edge-paths"><defs><marker id="arrowhead-vee" viewBox="0 0 10 10" refX="9" refY="5" markerUnits="strokeWidth" markerWidth="8" markerHeight="6" orient="auto" style="fill: rgb(0, 0, 0);"><path d="M 0 0 L 10 5 L 0 10 L 4 5 z" style="stroke-width: 1;"/></marker><marker id="arrowhead-vee-select" viewBox="0 0 10 10" refX="9" refY="5" markerUnits="strokeWidth" markerWidth="8" markerHeight="6" orient="auto" style="fill: rgb(238, 0, 0);"><path d="M 0 0 L 10 5 L 0 10 L 4 5 z" style="stroke-width: 1;"/></marker></defs><path id="edge-input" class="edge-path" d="M51.921875,23L51.921875,24.666666666666668C51.921875,26.333333333333332,51.921875,29.666666666666668,51.921875,33C51.921875,36.333333333333336,51.921875,39.666666666666664,51.921875,43C51.921875,46.333333333333336,51.921875,49.666666666666664,51.921875,53C51.921875,56.333333333333336,51.921875,59.666666666666664,51.921875,61.333333333333336L51.921875,63" style="stroke: rgb(0, 0, 0); stroke-width: 1px; fill: none; marker-end: url(&quot;#arrowhead-vee&quot;);"/><path id="edge-conv2d_6_input" class="edge-path" d="M51.921875,86L51.921875,87.66666666666667C51.921875,89.33333333333333,51.921875,92.66666666666667,51.921875,96C51.921875,99.33333333333333,51.921875,102.66666666666667,51.921875,104.33333333333333L51.921875,106" style="stroke: rgb(0, 0, 0); stroke-width: 1px; fill: none; marker-end: url(&quot;#arrowhead-vee&quot;);"/><path id="edge-conv2d_6" class="edge-path" d="M51.921875,186L51.921875,187.66666666666666C51.921875,189.33333333333334,51.921875,192.66666666666666,51.921875,196C51.921875,199.33333333333334,51.921875,202.66666666666666,51.921875,204.33333333333334L51.921875,206" style="stroke: rgb(0, 0, 0); stroke-width: 1px; fill: none; marker-end: url(&quot;#arrowhead-vee&quot;);"/><path id="edge-max_pooling2d_6" class="edge-path" d="M51.921875,229L51.921875,230.66666666666666C51.921875,232.33333333333334,51.921875,235.66666666666666,51.921875,239C51.921875,242.33333333333334,51.921875,245.66666666666666,51.921875,247.33333333333334L51.921875,249" style="stroke: rgb(0, 0, 0); stroke-width: 1px; fill: none; marker-end: url(&quot;#arrowhead-vee&quot;);"/><path id="edge-conv2d_7" class="edge-path" d="M51.921875,329L51.921875,330.6666666666667C51.921875,332.3333333333333,51.921875,335.6666666666667,51.921875,339C51.921875,342.3333333333333,51.921875,345.6666666666667,51.921875,347.3333333333333L51.921875,349" style="stroke: rgb(0, 0, 0); stroke-width: 1px; fill: none; marker-end: url(&quot;#arrowhead-vee&quot;);"/><path id="edge-max_pooling2d_7" class="edge-path" d="M51.921875,372L51.921875,373.6666666666667C51.921875,375.3333333333333,51.921875,378.6666666666667,51.921875,382C51.921875,385.3333333333333,51.921875,388.6666666666667,51.921875,390.3333333333333L51.921875,392" style="stroke: rgb(0, 0, 0); stroke-width: 1px; fill: none; marker-end: url(&quot;#arrowhead-vee&quot;);"/><path id="edge-conv2d_8" class="edge-path" d="M51.921875,472L51.921875,473.6666666666667C51.921875,475.3333333333333,51.921875,478.6666666666667,51.921875,482C51.921875,485.3333333333333,51.921875,488.6666666666667,51.921875,490.3333333333333L51.921875,492" style="stroke: rgb(0, 0, 0); stroke-width: 1px; fill: none; marker-end: url(&quot;#arrowhead-vee&quot;);"/><path id="edge-max_pooling2d_8" class="edge-path" d="M51.921875,515L51.921875,516.6666666666666C51.921875,518.3333333333334,51.921875,521.6666666666666,51.921875,525C51.921875,528.3333333333334,51.921875,531.6666666666666,51.921875,533.3333333333334L51.921875,535" style="stroke: rgb(0, 0, 0); stroke-width: 1px; fill: none; marker-end: url(&quot;#arrowhead-vee&quot;);"/><path id="edge-dropout_4" class="edge-path" d="M51.921875,558L51.921875,559.6666666666666C51.921875,561.3333333333334,51.921875,564.6666666666666,51.921875,568C51.921875,571.3333333333334,51.921875,574.6666666666666,51.921875,576.3333333333334L51.921875,578" style="stroke: rgb(0, 0, 0); stroke-width: 1px; fill: none; marker-end: url(&quot;#arrowhead-vee&quot;);"/><path id="edge-flatten_2" class="edge-path" d="M51.921875,601L51.921875,602.6666666666666C51.921875,604.3333333333334,51.921875,607.6666666666666,51.921875,611C51.921875,614.3333333333334,51.921875,617.6666666666666,51.921875,619.3333333333334L51.921875,621" style="stroke: rgb(0, 0, 0); stroke-width: 1px; fill: none; marker-end: url(&quot;#arrowhead-vee&quot;);"/><path id="edge-dense_4" class="edge-path" d="M51.921875,701L51.921875,702.6666666666666C51.921875,704.3333333333334,51.921875,707.6666666666666,51.921875,711C51.921875,714.3333333333334,51.921875,717.6666666666666,51.921875,719.3333333333334L51.921875,721" style="stroke: rgb(0, 0, 0); stroke-width: 1px; fill: none; marker-end: url(&quot;#arrowhead-vee&quot;);"/><path id="edge-dropout_5" class="edge-path" d="M51.921875,744L51.921875,745.6666666666666C51.921875,747.3333333333334,51.921875,750.6666666666666,51.921875,754C51.921875,757.3333333333334,51.921875,760.6666666666666,51.921875,762.3333333333334L51.921875,764" style="stroke: rgb(0, 0, 0); stroke-width: 1px; fill: none; marker-end: url(&quot;#arrowhead-vee&quot;);"/><path id="edge-dense_5" class="edge-path" d="M51.921875,844L51.921875,845.6666666666666C51.921875,847.3333333333334,51.921875,850.6666666666666,51.921875,854C51.921875,857.3333333333334,51.921875,860.6666666666666,51.921875,862.3333333333334L51.921875,864" style="stroke: rgb(0, 0, 0); stroke-width: 1px; fill: none; marker-end: url(&quot;#arrowhead-vee&quot;);"/></g><g id="edge-labels" class="edge-labels"/><g id="nodes" class="nodes"><g id="node-name-conv2d_6_input" class="node graph-node" transform="translate(51.921875,74.5)" style="opacity: 1;"><g transform="translate(-33.2109375,-11.5)"><g class="node-item node-item-type node-item-type-data" transform="translate(0,0)"><path d="M5,0h56.421875a5,5 0 0 1 5,5v13a5,5 0 0 1 -5,5h-56.421875a5,5 0 0 1 -5,-5v-13a5,5 0 0 1 5,-5z" style="stroke: rgb(0, 0, 0); fill: rgb(85, 85, 85); stroke-width: 0;"/><text x="6" y="16" style="font-family: -apple-system, BlinkMacSystemFont, &quot;Segoe WPC&quot;, &quot;Segoe UI&quot;, Ubuntu, &quot;Droid Sans&quot;, sans-serif, &quot;PingFang SC&quot;; font-size: 11px; text-rendering: geometricprecision; fill: rgb(255, 255, 255);">InputLayer</text><title>conv2d_6_input</title></g><path class="node border" d="M5,0h56.421875a5,5 0 0 1 5,5v13a5,5 0 0 1 -5,5h-56.421875a5,5 0 0 1 -5,-5v-13a5,5 0 0 1 5,-5z" style="stroke: rgb(51, 51, 51); fill: none; stroke-width: 1px;"/></g></g><g id="node-name-conv2d_6" class="node graph-node" transform="translate(51.921875,146)" style="opacity: 1;"><g transform="translate(-49.4921875,-40)"><g class="node-item node-item-type node-item-type-layer" transform="translate(0,0)"><path d="M5,0h88.984375a5,5 0 0 1 5,5v18a0,0 0 0 1 0,0h-98.984375a0,0 0 0 1 0,0v-18a5,5 0 0 1 5,-5z" style="stroke: rgb(0, 0, 0); fill: rgb(51, 85, 136); stroke-width: 0;"/><text x="6" y="16" style="font-family: -apple-system, BlinkMacSystemFont, &quot;Segoe WPC&quot;, &quot;Segoe UI&quot;, Ubuntu, &quot;Droid Sans&quot;, sans-serif, &quot;PingFang SC&quot;; font-size: 11px; text-rendering: geometricprecision; fill: rgb(255, 255, 255);">Conv2D</text><title>conv2d_6</title></g><g class="node-attribute" transform="translate(0,23)"><path d="M0,0h98.984375a0,0 0 0 1 0,0v34a0,0 0 0 1 0,0h-98.984375a0,0 0 0 1 0,0v-34a0,0 0 0 1 0,0z" style="stroke: rgb(0, 0, 0); fill: rgb(255, 255, 255); stroke-width: 0;"/><text id="initializer-conv2d_6/kernel:0" xml:space="preserve" x="6" y="14" style="font-family: -apple-system, BlinkMacSystemFont, &quot;Segoe WPC&quot;, &quot;Segoe UI&quot;, Ubuntu, &quot;Droid Sans&quot;, sans-serif, &quot;PingFang SC&quot;; font-size: 9px; font-weight: normal; text-rendering: geometricprecision;"><title>float32[3,3,1,32]</title><tspan style="font-weight: bold;">kernel</tspan><tspan>〈3×3×1×32〉</tspan></text><text id="initializer-conv2d_6/bias:0" xml:space="preserve" x="6" y="28" style="font-family: -apple-system, BlinkMacSystemFont, &quot;Segoe WPC&quot;, &quot;Segoe UI&quot;, Ubuntu, &quot;Droid Sans&quot;, sans-serif, &quot;PingFang SC&quot;; font-size: 9px; font-weight: normal; text-rendering: geometricprecision;"><title>float32[32]</title><tspan style="font-weight: bold;">bias</tspan><tspan>〈32〉</tspan></text><line class="node" x1="0" x2="98.984375" y1="0" y2="0" style="stroke: rgb(51, 51, 51); fill: none; stroke-width: 1px;"/></g><g class="node-item node-item-type node-item-type-activation" transform="translate(0,57)"><path d="M0,0h98.984375a0,0 0 0 1 0,0v18a5,5 0 0 1 -5,5h-88.984375a5,5 0 0 1 -5,-5v-18a0,0 0 0 1 0,0z" style="stroke: rgb(0, 0, 0); fill: rgb(112, 41, 33); stroke-width: 0;"/><text x="6" y="16" style="font-family: -apple-system, BlinkMacSystemFont, &quot;Segoe WPC&quot;, &quot;Segoe UI&quot;, Ubuntu, &quot;Droid Sans&quot;, sans-serif, &quot;PingFang SC&quot;; font-size: 11px; text-rendering: geometricprecision; fill: rgb(255, 255, 255);">ReLU</text></g><line class="node" x1="0" x2="98.984375" y1="57" y2="57" style="stroke: rgb(51, 51, 51); fill: none; stroke-width: 1px;"/><path class="node border" d="M5,0h88.984375a5,5 0 0 1 5,5v70a5,5 0 0 1 -5,5h-88.984375a5,5 0 0 1 -5,-5v-70a5,5 0 0 1 5,-5z" style="stroke: rgb(51, 51, 51); fill: none; stroke-width: 1px;"/></g></g><g id="node-name-max_pooling2d_6" class="node graph-node" transform="translate(51.921875,217.5)" style="opacity: 1;"><g transform="translate(-42.5703125,-11.5)"><g class="node-item node-item-type node-item-type-pool" transform="translate(0,0)"><path d="M5,0h75.140625a5,5 0 0 1 5,5v13a5,5 0 0 1 -5,5h-75.140625a5,5 0 0 1 -5,-5v-13a5,5 0 0 1 5,-5z" style="stroke: rgb(0, 0, 0); fill: rgb(51, 85, 51); stroke-width: 0;"/><text x="6" y="16" style="font-family: -apple-system, BlinkMacSystemFont, &quot;Segoe WPC&quot;, &quot;Segoe UI&quot;, Ubuntu, &quot;Droid Sans&quot;, sans-serif, &quot;PingFang SC&quot;; font-size: 11px; text-rendering: geometricprecision; fill: rgb(255, 255, 255);">MaxPooling2D</text><title>max_pooling2d_6</title></g><path class="node border" d="M5,0h75.140625a5,5 0 0 1 5,5v13a5,5 0 0 1 -5,5h-75.140625a5,5 0 0 1 -5,-5v-13a5,5 0 0 1 5,-5z" style="stroke: rgb(51, 51, 51); fill: none; stroke-width: 1px;"/></g></g><g id="node-name-conv2d_7" class="node graph-node" transform="translate(51.921875,289)" style="opacity: 1;"><g transform="translate(-51.921875,-40)"><g class="node-item node-item-type node-item-type-layer" transform="translate(0,0)"><path d="M5,0h93.84375a5,5 0 0 1 5,5v18a0,0 0 0 1 0,0h-103.84375a0,0 0 0 1 0,0v-18a5,5 0 0 1 5,-5z" style="stroke: rgb(0, 0, 0); fill: rgb(51, 85, 136); stroke-width: 0;"/><text x="6" y="16" style="font-family: -apple-system, BlinkMacSystemFont, &quot;Segoe WPC&quot;, &quot;Segoe UI&quot;, Ubuntu, &quot;Droid Sans&quot;, sans-serif, &quot;PingFang SC&quot;; font-size: 11px; text-rendering: geometricprecision; fill: rgb(255, 255, 255);">Conv2D</text><title>conv2d_7</title></g><g class="node-attribute" transform="translate(0,23)"><path d="M0,0h103.84375a0,0 0 0 1 0,0v34a0,0 0 0 1 0,0h-103.84375a0,0 0 0 1 0,0v-34a0,0 0 0 1 0,0z" style="stroke: rgb(0, 0, 0); fill: rgb(255, 255, 255); stroke-width: 0;"/><text id="initializer-conv2d_7/kernel:0" xml:space="preserve" x="6" y="14" style="font-family: -apple-system, BlinkMacSystemFont, &quot;Segoe WPC&quot;, &quot;Segoe UI&quot;, Ubuntu, &quot;Droid Sans&quot;, sans-serif, &quot;PingFang SC&quot;; font-size: 9px; font-weight: normal; text-rendering: geometricprecision;"><title>float32[3,3,32,32]</title><tspan style="font-weight: bold;">kernel</tspan><tspan>〈3×3×32×32〉</tspan></text><text id="initializer-conv2d_7/bias:0" xml:space="preserve" x="6" y="28" style="font-family: -apple-system, BlinkMacSystemFont, &quot;Segoe WPC&quot;, &quot;Segoe UI&quot;, Ubuntu, &quot;Droid Sans&quot;, sans-serif, &quot;PingFang SC&quot;; font-size: 9px; font-weight: normal; text-rendering: geometricprecision;"><title>float32[32]</title><tspan style="font-weight: bold;">bias</tspan><tspan>〈32〉</tspan></text><line class="node" x1="0" x2="103.84375" y1="0" y2="0" style="stroke: rgb(51, 51, 51); fill: none; stroke-width: 1px;"/></g><g class="node-item node-item-type node-item-type-activation" transform="translate(0,57)"><path d="M0,0h103.84375a0,0 0 0 1 0,0v18a5,5 0 0 1 -5,5h-93.84375a5,5 0 0 1 -5,-5v-18a0,0 0 0 1 0,0z" style="stroke: rgb(0, 0, 0); fill: rgb(112, 41, 33); stroke-width: 0;"/><text x="6" y="16" style="font-family: -apple-system, BlinkMacSystemFont, &quot;Segoe WPC&quot;, &quot;Segoe UI&quot;, Ubuntu, &quot;Droid Sans&quot;, sans-serif, &quot;PingFang SC&quot;; font-size: 11px; text-rendering: geometricprecision; fill: rgb(255, 255, 255);">ReLU</text></g><line class="node" x1="0" x2="103.84375" y1="57" y2="57" style="stroke: rgb(51, 51, 51); fill: none; stroke-width: 1px;"/><path class="node border" d="M5,0h93.84375a5,5 0 0 1 5,5v70a5,5 0 0 1 -5,5h-93.84375a5,5 0 0 1 -5,-5v-70a5,5 0 0 1 5,-5z" style="stroke: rgb(51, 51, 51); fill: none; stroke-width: 1px;"/></g></g><g id="node-name-max_pooling2d_7" class="node graph-node" transform="translate(51.921875,360.5)" style="opacity: 1;"><g transform="translate(-42.5703125,-11.5)"><g class="node-item node-item-type node-item-type-pool" transform="translate(0,0)"><path d="M5,0h75.140625a5,5 0 0 1 5,5v13a5,5 0 0 1 -5,5h-75.140625a5,5 0 0 1 -5,-5v-13a5,5 0 0 1 5,-5z" style="stroke: rgb(0, 0, 0); fill: rgb(51, 85, 51); stroke-width: 0;"/><text x="6" y="16" style="font-family: -apple-system, BlinkMacSystemFont, &quot;Segoe WPC&quot;, &quot;Segoe UI&quot;, Ubuntu, &quot;Droid Sans&quot;, sans-serif, &quot;PingFang SC&quot;; font-size: 11px; text-rendering: geometricprecision; fill: rgb(255, 255, 255);">MaxPooling2D</text><title>max_pooling2d_7</title></g><path class="node border" d="M5,0h75.140625a5,5 0 0 1 5,5v13a5,5 0 0 1 -5,5h-75.140625a5,5 0 0 1 -5,-5v-13a5,5 0 0 1 5,-5z" style="stroke: rgb(51, 51, 51); fill: none; stroke-width: 1px;"/></g></g><g id="node-name-conv2d_8" class="node graph-node" transform="translate(51.921875,432)" style="opacity: 1;"><g transform="translate(-51.921875,-40)"><g class="node-item node-item-type node-item-type-layer" transform="translate(0,0)"><path d="M5,0h93.84375a5,5 0 0 1 5,5v18a0,0 0 0 1 0,0h-103.84375a0,0 0 0 1 0,0v-18a5,5 0 0 1 5,-5z" style="stroke: rgb(0, 0, 0); fill: rgb(51, 85, 136); stroke-width: 0;"/><text x="6" y="16" style="font-family: -apple-system, BlinkMacSystemFont, &quot;Segoe WPC&quot;, &quot;Segoe UI&quot;, Ubuntu, &quot;Droid Sans&quot;, sans-serif, &quot;PingFang SC&quot;; font-size: 11px; text-rendering: geometricprecision; fill: rgb(255, 255, 255);">Conv2D</text><title>conv2d_8</title></g><g class="node-attribute" transform="translate(0,23)"><path d="M0,0h103.84375a0,0 0 0 1 0,0v34a0,0 0 0 1 0,0h-103.84375a0,0 0 0 1 0,0v-34a0,0 0 0 1 0,0z" style="stroke: rgb(0, 0, 0); fill: rgb(255, 255, 255); stroke-width: 0;"/><text id="initializer-conv2d_8/kernel:0" xml:space="preserve" x="6" y="14" style="font-family: -apple-system, BlinkMacSystemFont, &quot;Segoe WPC&quot;, &quot;Segoe UI&quot;, Ubuntu, &quot;Droid Sans&quot;, sans-serif, &quot;PingFang SC&quot;; font-size: 9px; font-weight: normal; text-rendering: geometricprecision;"><title>float32[3,3,32,64]</title><tspan style="font-weight: bold;">kernel</tspan><tspan>〈3×3×32×64〉</tspan></text><text id="initializer-conv2d_8/bias:0" xml:space="preserve" x="6" y="28" style="font-family: -apple-system, BlinkMacSystemFont, &quot;Segoe WPC&quot;, &quot;Segoe UI&quot;, Ubuntu, &quot;Droid Sans&quot;, sans-serif, &quot;PingFang SC&quot;; font-size: 9px; font-weight: normal; text-rendering: geometricprecision;"><title>float32[64]</title><tspan style="font-weight: bold;">bias</tspan><tspan>〈64〉</tspan></text><line class="node" x1="0" x2="103.84375" y1="0" y2="0" style="stroke: rgb(51, 51, 51); fill: none; stroke-width: 1px;"/></g><g class="node-item node-item-type node-item-type-activation" transform="translate(0,57)"><path d="M0,0h103.84375a0,0 0 0 1 0,0v18a5,5 0 0 1 -5,5h-93.84375a5,5 0 0 1 -5,-5v-18a0,0 0 0 1 0,0z" style="stroke: rgb(0, 0, 0); fill: rgb(112, 41, 33); stroke-width: 0;"/><text x="6" y="16" style="font-family: -apple-system, BlinkMacSystemFont, &quot;Segoe WPC&quot;, &quot;Segoe UI&quot;, Ubuntu, &quot;Droid Sans&quot;, sans-serif, &quot;PingFang SC&quot;; font-size: 11px; text-rendering: geometricprecision; fill: rgb(255, 255, 255);">ReLU</text></g><line class="node" x1="0" x2="103.84375" y1="57" y2="57" style="stroke: rgb(51, 51, 51); fill: none; stroke-width: 1px;"/><path class="node border" d="M5,0h93.84375a5,5 0 0 1 5,5v70a5,5 0 0 1 -5,5h-93.84375a5,5 0 0 1 -5,-5v-70a5,5 0 0 1 5,-5z" style="stroke: rgb(51, 51, 51); fill: none; stroke-width: 1px;"/></g></g><g id="node-name-max_pooling2d_8" class="node graph-node" transform="translate(51.921875,503.5)" style="opacity: 1;"><g transform="translate(-42.5703125,-11.5)"><g class="node-item node-item-type node-item-type-pool" transform="translate(0,0)"><path d="M5,0h75.140625a5,5 0 0 1 5,5v13a5,5 0 0 1 -5,5h-75.140625a5,5 0 0 1 -5,-5v-13a5,5 0 0 1 5,-5z" style="stroke: rgb(0, 0, 0); fill: rgb(51, 85, 51); stroke-width: 0;"/><text x="6" y="16" style="font-family: -apple-system, BlinkMacSystemFont, &quot;Segoe WPC&quot;, &quot;Segoe UI&quot;, Ubuntu, &quot;Droid Sans&quot;, sans-serif, &quot;PingFang SC&quot;; font-size: 11px; text-rendering: geometricprecision; fill: rgb(255, 255, 255);">MaxPooling2D</text><title>max_pooling2d_8</title></g><path class="node border" d="M5,0h75.140625a5,5 0 0 1 5,5v13a5,5 0 0 1 -5,5h-75.140625a5,5 0 0 1 -5,-5v-13a5,5 0 0 1 5,-5z" style="stroke: rgb(51, 51, 51); fill: none; stroke-width: 1px;"/></g></g><g id="node-name-dropout_4" class="node graph-node" transform="translate(51.921875,546.5)" style="opacity: 1;"><g transform="translate(-27.5625,-11.5)"><g class="node-item node-item-type node-item-type-dropout" transform="translate(0,0)"><path d="M5,0h45.125a5,5 0 0 1 5,5v13a5,5 0 0 1 -5,5h-45.125a5,5 0 0 1 -5,-5v-13a5,5 0 0 1 5,-5z" style="stroke: rgb(0, 0, 0); fill: rgb(69, 71, 112); stroke-width: 0;"/><text x="6" y="16" style="font-family: -apple-system, BlinkMacSystemFont, &quot;Segoe WPC&quot;, &quot;Segoe UI&quot;, Ubuntu, &quot;Droid Sans&quot;, sans-serif, &quot;PingFang SC&quot;; font-size: 11px; text-rendering: geometricprecision; fill: rgb(255, 255, 255);">Dropout</text><title>dropout_4</title></g><path class="node border" d="M5,0h45.125a5,5 0 0 1 5,5v13a5,5 0 0 1 -5,5h-45.125a5,5 0 0 1 -5,-5v-13a5,5 0 0 1 5,-5z" style="stroke: rgb(51, 51, 51); fill: none; stroke-width: 1px;"/></g></g><g id="node-name-flatten_2" class="node graph-node" transform="translate(51.921875,589.5)" style="opacity: 1;"><g transform="translate(-23.5390625,-11.5)"><g class="node-item node-item-type node-item-type-shape" transform="translate(0,0)"><path d="M5,0h37.078125a5,5 0 0 1 5,5v13a5,5 0 0 1 -5,5h-37.078125a5,5 0 0 1 -5,-5v-13a5,5 0 0 1 5,-5z" style="stroke: rgb(0, 0, 0); fill: rgb(108, 79, 71); stroke-width: 0;"/><text x="6" y="16" style="font-family: -apple-system, BlinkMacSystemFont, &quot;Segoe WPC&quot;, &quot;Segoe UI&quot;, Ubuntu, &quot;Droid Sans&quot;, sans-serif, &quot;PingFang SC&quot;; font-size: 11px; text-rendering: geometricprecision; fill: rgb(255, 255, 255);">Flatten</text><title>flatten_2</title></g><path class="node border" d="M5,0h37.078125a5,5 0 0 1 5,5v13a5,5 0 0 1 -5,5h-37.078125a5,5 0 0 1 -5,-5v-13a5,5 0 0 1 5,-5z" style="stroke: rgb(51, 51, 51); fill: none; stroke-width: 1px;"/></g></g><g id="node-name-dense_4" class="node graph-node" transform="translate(51.921875,661)" style="opacity: 1;"><g transform="translate(-50.6171875,-40)"><g class="node-item node-item-type node-item-type-layer" transform="translate(0,0)"><path d="M5,0h91.234375a5,5 0 0 1 5,5v18a0,0 0 0 1 0,0h-101.234375a0,0 0 0 1 0,0v-18a5,5 0 0 1 5,-5z" style="stroke: rgb(0, 0, 0); fill: rgb(51, 85, 136); stroke-width: 0;"/><text x="6" y="16" style="font-family: -apple-system, BlinkMacSystemFont, &quot;Segoe WPC&quot;, &quot;Segoe UI&quot;, Ubuntu, &quot;Droid Sans&quot;, sans-serif, &quot;PingFang SC&quot;; font-size: 11px; text-rendering: geometricprecision; fill: rgb(255, 255, 255);">Dense</text><title>dense_4</title></g><g class="node-attribute" transform="translate(0,23)"><path d="M0,0h101.234375a0,0 0 0 1 0,0v34a0,0 0 0 1 0,0h-101.234375a0,0 0 0 1 0,0v-34a0,0 0 0 1 0,0z" style="stroke: rgb(0, 0, 0); fill: rgb(255, 255, 255); stroke-width: 0;"/><text id="initializer-dense_4/kernel:0" xml:space="preserve" x="6" y="14" style="font-family: -apple-system, BlinkMacSystemFont, &quot;Segoe WPC&quot;, &quot;Segoe UI&quot;, Ubuntu, &quot;Droid Sans&quot;, sans-serif, &quot;PingFang SC&quot;; font-size: 9px; font-weight: normal; text-rendering: geometricprecision;"><title>float32[20736,128]</title><tspan style="font-weight: bold;">kernel</tspan><tspan>〈20736×128〉</tspan></text><text id="initializer-dense_4/bias:0" xml:space="preserve" x="6" y="28" style="font-family: -apple-system, BlinkMacSystemFont, &quot;Segoe WPC&quot;, &quot;Segoe UI&quot;, Ubuntu, &quot;Droid Sans&quot;, sans-serif, &quot;PingFang SC&quot;; font-size: 9px; font-weight: normal; text-rendering: geometricprecision;"><title>float32[128]</title><tspan style="font-weight: bold;">bias</tspan><tspan>〈128〉</tspan></text><line class="node" x1="0" x2="101.234375" y1="0" y2="0" style="stroke: rgb(51, 51, 51); fill: none; stroke-width: 1px;"/></g><g class="node-item node-item-type node-item-type-activation" transform="translate(0,57)"><path d="M0,0h101.234375a0,0 0 0 1 0,0v18a5,5 0 0 1 -5,5h-91.234375a5,5 0 0 1 -5,-5v-18a0,0 0 0 1 0,0z" style="stroke: rgb(0, 0, 0); fill: rgb(112, 41, 33); stroke-width: 0;"/><text x="6" y="16" style="font-family: -apple-system, BlinkMacSystemFont, &quot;Segoe WPC&quot;, &quot;Segoe UI&quot;, Ubuntu, &quot;Droid Sans&quot;, sans-serif, &quot;PingFang SC&quot;; font-size: 11px; text-rendering: geometricprecision; fill: rgb(255, 255, 255);">ReLU</text></g><line class="node" x1="0" x2="101.234375" y1="57" y2="57" style="stroke: rgb(51, 51, 51); fill: none; stroke-width: 1px;"/><path class="node border" d="M5,0h91.234375a5,5 0 0 1 5,5v70a5,5 0 0 1 -5,5h-91.234375a5,5 0 0 1 -5,-5v-70a5,5 0 0 1 5,-5z" style="stroke: rgb(51, 51, 51); fill: none; stroke-width: 1px;"/></g></g><g id="node-name-dropout_5" class="node graph-node" transform="translate(51.921875,732.5)" style="opacity: 1;"><g transform="translate(-27.5625,-11.5)"><g class="node-item node-item-type node-item-type-dropout" transform="translate(0,0)"><path d="M5,0h45.125a5,5 0 0 1 5,5v13a5,5 0 0 1 -5,5h-45.125a5,5 0 0 1 -5,-5v-13a5,5 0 0 1 5,-5z" style="stroke: rgb(0, 0, 0); fill: rgb(69, 71, 112); stroke-width: 0;"/><text x="6" y="16" style="font-family: -apple-system, BlinkMacSystemFont, &quot;Segoe WPC&quot;, &quot;Segoe UI&quot;, Ubuntu, &quot;Droid Sans&quot;, sans-serif, &quot;PingFang SC&quot;; font-size: 11px; text-rendering: geometricprecision; fill: rgb(255, 255, 255);">Dropout</text><title>dropout_5</title></g><path class="node border" d="M5,0h45.125a5,5 0 0 1 5,5v13a5,5 0 0 1 -5,5h-45.125a5,5 0 0 1 -5,-5v-13a5,5 0 0 1 5,-5z" style="stroke: rgb(51, 51, 51); fill: none; stroke-width: 1px;"/></g></g><g id="node-name-dense_5" class="node graph-node" transform="translate(51.921875,804)" style="opacity: 1;"><g transform="translate(-40.9140625,-40)"><g class="node-item node-item-type node-item-type-layer" transform="translate(0,0)"><path d="M5,0h71.828125a5,5 0 0 1 5,5v18a0,0 0 0 1 0,0h-81.828125a0,0 0 0 1 0,0v-18a5,5 0 0 1 5,-5z" style="stroke: rgb(0, 0, 0); fill: rgb(51, 85, 136); stroke-width: 0;"/><text x="6" y="16" style="font-family: -apple-system, BlinkMacSystemFont, &quot;Segoe WPC&quot;, &quot;Segoe UI&quot;, Ubuntu, &quot;Droid Sans&quot;, sans-serif, &quot;PingFang SC&quot;; font-size: 11px; text-rendering: geometricprecision; fill: rgb(255, 255, 255);">Dense</text><title>dense_5</title></g><g class="node-attribute" transform="translate(0,23)"><path d="M0,0h81.828125a0,0 0 0 1 0,0v34a0,0 0 0 1 0,0h-81.828125a0,0 0 0 1 0,0v-34a0,0 0 0 1 0,0z" style="stroke: rgb(0, 0, 0); fill: rgb(255, 255, 255); stroke-width: 0;"/><text id="initializer-dense_5/kernel:0" xml:space="preserve" x="6" y="14" style="font-family: -apple-system, BlinkMacSystemFont, &quot;Segoe WPC&quot;, &quot;Segoe UI&quot;, Ubuntu, &quot;Droid Sans&quot;, sans-serif, &quot;PingFang SC&quot;; font-size: 9px; font-weight: normal; text-rendering: geometricprecision;"><title>float32[128,4]</title><tspan style="font-weight: bold;">kernel</tspan><tspan>〈128×4〉</tspan></text><text id="initializer-dense_5/bias:0" xml:space="preserve" x="6" y="28" style="font-family: -apple-system, BlinkMacSystemFont, &quot;Segoe WPC&quot;, &quot;Segoe UI&quot;, Ubuntu, &quot;Droid Sans&quot;, sans-serif, &quot;PingFang SC&quot;; font-size: 9px; font-weight: normal; text-rendering: geometricprecision;"><title>float32[4]</title><tspan style="font-weight: bold;">bias</tspan><tspan>〈4〉</tspan></text><line class="node" x1="0" x2="81.828125" y1="0" y2="0" style="stroke: rgb(51, 51, 51); fill: none; stroke-width: 1px;"/></g><g class="node-item node-item-type node-item-type-activation" transform="translate(0,57)"><path d="M0,0h81.828125a0,0 0 0 1 0,0v18a5,5 0 0 1 -5,5h-71.828125a5,5 0 0 1 -5,-5v-18a0,0 0 0 1 0,0z" style="stroke: rgb(0, 0, 0); fill: rgb(112, 41, 33); stroke-width: 0;"/><text x="6" y="16" style="font-family: -apple-system, BlinkMacSystemFont, &quot;Segoe WPC&quot;, &quot;Segoe UI&quot;, Ubuntu, &quot;Droid Sans&quot;, sans-serif, &quot;PingFang SC&quot;; font-size: 11px; text-rendering: geometricprecision; fill: rgb(255, 255, 255);">Softmax</text></g><line class="node" x1="0" x2="81.828125" y1="57" y2="57" style="stroke: rgb(51, 51, 51); fill: none; stroke-width: 1px;"/><path class="node border" d="M5,0h71.828125a5,5 0 0 1 5,5v70a5,5 0 0 1 -5,5h-71.828125a5,5 0 0 1 -5,-5v-70a5,5 0 0 1 5,-5z" style="stroke: rgb(51, 51, 51); fill: none; stroke-width: 1px;"/></g></g><g id="input-name-input" class="node graph-input" transform="translate(51.921875,11.5)" style="opacity: 1;"><g transform="translate(-19.796875,-11.5)"><g class="node-item graph-item-input" transform="translate(0,0)"><path d="M5,0h29.59375a5,5 0 0 1 5,5v13a5,5 0 0 1 -5,5h-29.59375a5,5 0 0 1 -5,-5v-13a5,5 0 0 1 5,-5z" style="stroke: rgb(0, 0, 0); fill: rgb(238, 238, 238); stroke-width: 0;"/><text x="6" y="16" style="font-family: -apple-system, BlinkMacSystemFont, &quot;Segoe WPC&quot;, &quot;Segoe UI&quot;, Ubuntu, &quot;Droid Sans&quot;, sans-serif, &quot;PingFang SC&quot;; font-size: 11px; text-rendering: geometricprecision;">input</text><title>float32[?,24,24,1]</title></g><path class="node border" d="M5,0h29.59375a5,5 0 0 1 5,5v13a5,5 0 0 1 -5,5h-29.59375a5,5 0 0 1 -5,-5v-13a5,5 0 0 1 5,-5z" style="stroke: rgb(51, 51, 51); fill: none; stroke-width: 1px;"/></g></g><g class="node" transform="translate(51.921875,875.5)" style="opacity: 1;"><g transform="translate(-26.7265625,-11.5)"><g class="node-item graph-item-output" transform="translate(0,0)"><path d="M5,0h43.453125a5,5 0 0 1 5,5v13a5,5 0 0 1 -5,5h-43.453125a5,5 0 0 1 -5,-5v-13a5,5 0 0 1 5,-5z" style="stroke: rgb(0, 0, 0); fill: rgb(238, 238, 238); stroke-width: 0;"/><text x="6" y="16" style="font-family: -apple-system, BlinkMacSystemFont, &quot;Segoe WPC&quot;, &quot;Segoe UI&quot;, Ubuntu, &quot;Droid Sans&quot;, sans-serif, &quot;PingFang SC&quot;; font-size: 11px; text-rendering: geometricprecision;">dense_5</text></g><path class="node border" d="M5,0h43.453125a5,5 0 0 1 5,5v13a5,5 0 0 1 -5,5h-43.453125a5,5 0 0 1 -5,-5v-13a5,5 0 0 1 5,-5z" style="stroke: rgb(51, 51, 51); fill: none; stroke-width: 1px;"/></g></g></g></g></svg>